<!-- Generator: Adobe Illustrator 17.1.0, SVG Export Plug-In  -->
<svg version="1.1" xmlns="http://www.w3.org/2000/svg" xmlns:xlink="http://www.w3.org/1999/xlink" viewBox="0 0 112 123">
	<path fill="#E0E0E0" d="M102.2,65.6c-3.8-2.2-8.2-2.8-12-2.2H75.1H59.9l7.6,13.2l7.6,13.2c1.6,3.8,4.4,6.9,8.2,9.1c9.1,5.4,21.1,2.2,26.2-7.3C114.8,82.6,111.4,71,102.2,65.6z"/>
	<path fill="#E0E0E0" d="M9.8,57.4c3.8,2.2,8.2,2.8,12,2.2l15.1-0.3L52.1,59l-7.9-13.2l-7.9-13.2c-1.6-3.8-4.4-6.9-8.2-9.1c-8.5-4.7-20.5-1.3-25.5,7.9C-2.8,40.4,0.6,52.4,9.8,57.4z"/>
	<path fill="#E0E0E0" d="M75.4,103.8c0-4.4-1.6-8.5-4.1-11.7l-7.6-13.2l-7.6-13.2l-7.6,13.2L41,92.1c-2.5,3.2-3.8,7.3-3.8,11.7c0,10.7,8.8,19.2,19.2,19.2S75.7,114.2,75.4,103.8z"/>
	<path fill="#E0E0E0" d="M36.6,19.2c0,4.4,1.6,8.5,4.1,11.7l7.6,13.2l7.6,13.2l7.6-13.2L71,30.9c2.5-3.2,3.8-7.3,3.8-11.7C74.8,8.5,66.3,0,55.5,0C45.1,0,36.3,8.8,36.6,19.2z"/>
	<path fill="#E0E0E0" d="M82.7,23.7c-3.8,2.2-6.6,5.7-8.2,9.5l-7.6,13.2l-7.6,13.2h15.1h15.1c4.1,0.6,8.2-0.3,12-2.5c9.1-5.4,12.3-17,6.9-26.2C103.8,21.1,91.8,18.3,82.7,23.7z"/>
	<path fill="#E0E0E0" d="M29.3,99.3c3.8-2.2,6.6-5.7,8.2-9.5l7.6-13.2l7.6-13.2H37.5H22.4c-4.1-0.6-8.2,0.3-12,2.5c-9.1,5.4-12.3,17-6.9,26.2C8.2,101.9,20.2,104.7,29.3,99.3z"/>
</svg>